<svg width="24" height="24" viewBox="0 0 24 24" fill="none" xmlns="http://www.w3.org/2000/svg">
  <path d="M12 15.5C13.933 15.5 15.5 13.933 15.5 12C15.5 10.067 13.933 8.5 12 8.5C10.067 8.5 8.5 10.067 8.5 12C8.5 13.933 10.067 15.5 12 15.5Z" stroke="currentColor" stroke-width="1.5"/>
  <path d="M4 12.75V11.25L6.1 10.65C6.29 10.6 6.45 10.47 6.53 10.3L7.7 8.04L6.9 6.5L8.04 5.36L9.58 6.16L11.84 5L12 5H12.75L13.35 7.1C13.4 7.29 13.53 7.45 13.7 7.53L15.96 8.7L17.5 7.9L18.64 9.04L17.84 10.58L19 12.84V13L18.9 13.35L16.9 13.9C16.71 13.95 16.55 14.08 16.47 14.25L15.3 16.51L16.1 18.05L14.96 19.19L13.42 18.39L11.16 19.55H11L10.65 19.45L10.1 17.45C10.05 17.26 9.92 17.1 9.75 17.02L7.49 15.85L5.95 16.65L4.81 15.51L5.61 13.97L4.45 11.71L4 12.75Z" stroke="currentColor" stroke-width="1.5" stroke-linejoin="round"/>
</svg>
